<svg width="103" height="103" viewBox="0 0 103 103" fill="none" xmlns="http://www.w3.org/2000/svg">
<path opacity="0.5" d="M26.0838 37.6698C31.0463 34.923 37.0869 34.8898 42.0105 37.5843M19.4986 44.255C16.7231 49.2694 16.7183 55.3845 19.4986 60.3357M41.9774 66.4524C36.8701 69.3627 30.5801 69.3678 25.5389 66.4524M48.1665 60.3468C51.1013 55.3571 51.2293 49.1941 48.5359 44.1674" stroke="#1F7F9B"/>
<path d="M16.9999 35.1713L51.1709 69.3423" stroke="#CDB97E" stroke-miterlimit="10" stroke-linecap="round"/>
<path d="M51.3419 35.1713L17.1709 69.3423" stroke="#CDB97E" stroke-miterlimit="10" stroke-linecap="round"/>
<path d="M58.424 56H61.208C62.348 56 62.888 55.46 62.888 54.32V52.952H61.16V54.176C61.16 54.356 61.1 54.416 60.92 54.416H58.712C58.532 54.416 58.472 54.356 58.472 54.176V49.424C58.472 49.244 58.532 49.184 58.712 49.184H60.92C61.1 49.184 61.16 49.244 61.16 49.424V50.648H62.888V49.28C62.888 48.14 62.348 47.6 61.208 47.6H58.424C57.284 47.6 56.744 48.14 56.744 49.28V54.32C56.744 55.46 57.284 56 58.424 56ZM64.4246 56H69.7766V54.416H66.1526V47.6H64.4246V56ZM72.3693 56H75.4533C76.5933 56 77.1333 55.46 77.1333 54.32V49.28C77.1333 48.14 76.5933 47.6 75.4533 47.6H72.3693C71.2293 47.6 70.6893 48.14 70.6893 49.28V54.32C70.6893 55.46 71.2293 56 72.3693 56ZM72.6573 54.416C72.4773 54.416 72.4173 54.356 72.4173 54.176V49.424C72.4173 49.244 72.4773 49.184 72.6573 49.184H75.1653C75.3453 49.184 75.4053 49.244 75.4053 49.424V54.176C75.4053 54.356 75.3453 54.416 75.1653 54.416H72.6573ZM80.2549 56H83.0149C84.1549 56 84.6949 55.46 84.6949 54.32V52.928C84.6949 51.848 84.0229 51.428 82.9669 51.2L80.7349 50.72C80.4229 50.648 80.3269 50.576 80.3269 50.312V49.4C80.3269 49.22 80.3869 49.16 80.5669 49.16H82.6309C82.8109 49.16 82.8709 49.22 82.8709 49.4V50.24H84.5509V49.28C84.5509 48.14 84.0109 47.6 82.8709 47.6H80.2789C79.1389 47.6 78.5989 48.14 78.5989 49.28V50.576C78.5989 51.656 79.2709 52.076 80.3269 52.304L82.5589 52.784C82.8709 52.856 82.9669 52.928 82.9669 53.192V54.2C82.9669 54.38 82.9069 54.44 82.7269 54.44H80.4949C80.3149 54.44 80.2549 54.38 80.2549 54.2V53.264H78.5749V54.32C78.5749 55.46 79.1149 56 80.2549 56ZM86.3386 56H91.9906V54.416H88.0666V52.484H91.2466V50.924H88.0666V49.184H91.9906V47.6H86.3386V56Z" fill="black"/>
</svg>
