<svg width="63" height="63" viewBox="0 0 63 63" fill="none" xmlns="http://www.w3.org/2000/svg">
<path opacity="0.5" d="M13.9252 23.6884C16.5745 22.222 19.7994 22.2043 22.4279 23.6428M10.4096 27.204C8.9279 29.881 8.92534 33.1456 10.4096 35.7889M22.4103 39.0544C19.6837 40.6081 16.3256 40.6108 13.6344 39.0544M25.7144 35.7948C27.2812 33.131 27.3495 29.8408 25.9116 27.1572" stroke="white"/>
<path d="M9.07565 22.3545L27.3183 40.5972" stroke="#CDB97E" stroke-miterlimit="10" stroke-linecap="round"/>
<path d="M27.4097 22.3545L9.16702 40.5971" stroke="#CDB97E" stroke-miterlimit="10" stroke-linecap="round"/>
<path d="M32.5124 34.4663H34.3684C35.1284 34.4663 35.4884 34.1063 35.4884 33.3463V32.4343H34.3364V33.2503C34.3364 33.3703 34.2964 33.4103 34.1764 33.4103H32.7044C32.5844 33.4103 32.5444 33.3703 32.5444 33.2503V30.0823C32.5444 29.9623 32.5844 29.9223 32.7044 29.9223H34.1764C34.2964 29.9223 34.3364 29.9623 34.3364 30.0823V30.8983H35.4884V29.9863C35.4884 29.2263 35.1284 28.8663 34.3684 28.8663H32.5124C31.7524 28.8663 31.3924 29.2263 31.3924 29.9863V33.3463C31.3924 34.1063 31.7524 34.4663 32.5124 34.4663ZM36.5128 34.4663H40.0808V33.4103H37.6648V28.8663H36.5128V34.4663ZM41.8093 34.4663H43.8653C44.6253 34.4663 44.9853 34.1063 44.9853 33.3463V29.9863C44.9853 29.2263 44.6253 28.8663 43.8653 28.8663H41.8093C41.0493 28.8663 40.6893 29.2263 40.6893 29.9863V33.3463C40.6893 34.1063 41.0493 34.4663 41.8093 34.4663ZM42.0013 33.4103C41.8813 33.4103 41.8413 33.3703 41.8413 33.2503V30.0823C41.8413 29.9623 41.8813 29.9223 42.0013 29.9223H43.6733C43.7933 29.9223 43.8333 29.9623 43.8333 30.0823V33.2503C43.8333 33.3703 43.7933 33.4103 43.6733 33.4103H42.0013ZM47.0663 34.4663H48.9063C49.6663 34.4663 50.0263 34.1063 50.0263 33.3463V32.4183C50.0263 31.6983 49.5783 31.4183 48.8743 31.2663L47.3863 30.9463C47.1783 30.8983 47.1143 30.8503 47.1143 30.6743V30.0663C47.1143 29.9463 47.1543 29.9063 47.2743 29.9063H48.6503C48.7703 29.9063 48.8103 29.9463 48.8103 30.0663V30.6263H49.9303V29.9863C49.9303 29.2263 49.5703 28.8663 48.8103 28.8663H47.0823C46.3223 28.8663 45.9623 29.2263 45.9623 29.9863V30.8503C45.9623 31.5703 46.4103 31.8503 47.1143 32.0023L48.6023 32.3223C48.8103 32.3703 48.8743 32.4183 48.8743 32.5943V33.2663C48.8743 33.3863 48.8343 33.4263 48.7143 33.4263H47.2263C47.1063 33.4263 47.0663 33.3863 47.0663 33.2663V32.6423H45.9463V33.3463C45.9463 34.1063 46.3063 34.4663 47.0663 34.4663ZM51.1221 34.4663H54.8901V33.4103H52.2741V32.1223H54.3941V31.0823H52.2741V29.9223H54.8901V28.8663H51.1221V34.4663Z" fill="white"/>
</svg>
